<svg width="32" height="32" viewBox="0 0 32 32" fill="none" xmlns="http://www.w3.org/2000/svg">
<path d="M12.0001 15.9998L14.6667 18.6665L20.6667 12.6665M23.8683 6.66451C24.1429 7.32855 24.6699 7.85637 25.3335 8.13193L27.6604 9.09581C28.3245 9.37088 28.8521 9.8985 29.1271 10.5626C29.4022 11.2267 29.4022 11.9728 29.1271 12.6369L28.164 14.9622C27.8888 15.6266 27.8884 16.3735 28.1648 17.0376L29.1263 19.3622C29.2627 19.6911 29.3329 20.0437 29.3329 20.3998C29.333 20.7558 29.2629 21.1084 29.1267 21.4374C28.9904 21.7663 28.7907 22.0652 28.5389 22.3169C28.2871 22.5687 27.9881 22.7683 27.6591 22.9045L25.3339 23.8677C24.6699 24.1422 24.1421 24.6693 23.8665 25.3329L22.9027 27.6599C22.6276 28.324 22.1 28.8516 21.436 29.1266C20.7719 29.4017 20.0258 29.4017 19.3617 29.1266L17.0365 28.1635C16.3724 27.8891 15.6265 27.8896 14.9628 28.165L12.6359 29.1275C11.9722 29.4019 11.2268 29.4017 10.5632 29.1269C9.89972 28.852 9.37242 28.325 9.09716 27.6616L8.13304 25.334C7.85848 24.6699 7.33147 24.1421 6.66788 23.8665L4.34097 22.9027C3.67719 22.6277 3.14976 22.1004 2.87459 21.4367C2.59943 20.773 2.59905 20.0272 2.87355 19.3632L3.8367 17.0379C4.11109 16.3738 4.11053 15.6279 3.83514 14.9642L2.87338 12.6355C2.73702 12.3066 2.66681 11.9541 2.66675 11.598C2.66669 11.242 2.73679 10.8894 2.87305 10.5604C3.0093 10.2315 3.20903 9.93257 3.46084 9.68084C3.71264 9.42911 4.01158 9.22946 4.34057 9.09331L6.66581 8.13013C7.32924 7.8558 7.85673 7.32944 8.13249 6.66658L9.09632 4.33958C9.37139 3.6755 9.89898 3.14788 10.563 2.87281C11.2271 2.59774 11.9732 2.59774 12.6373 2.87281L14.9625 3.83599C15.6266 4.11039 16.3725 4.10983 17.0362 3.83443L19.364 2.8743C20.028 2.59938 20.774 2.59944 21.4379 2.87446C22.1019 3.14948 22.6294 3.67694 22.9045 4.34086L23.8686 6.66854L23.8683 6.66451Z" stroke="white" stroke-width="2" stroke-linecap="round" stroke-linejoin="round"/>
</svg>
