<svg width="32" height="32" viewBox="0 0 32 32" fill="none" xmlns="http://www.w3.org/2000/svg">
<path d="M20.0001 3.27691C18.7374 2.88031 17.3937 2.6665 16.0001 2.6665C8.63628 2.6665 2.66675 8.63604 2.66675 15.9998C2.66675 23.3636 8.63628 29.3332 16.0001 29.3332C23.3639 29.3332 29.3334 23.3636 29.3334 15.9998C29.3334 13.7127 28.7576 11.5601 27.7429 9.6791M22.6667 7.6665H22.6734M14.0002 29.1842L14.0003 26.2464C14.0003 26.0873 14.0572 25.9334 14.1608 25.8126L17.4752 21.9457C17.7475 21.6279 17.6631 21.1407 17.2998 20.933L13.4915 18.7568C13.388 18.6977 13.3023 18.6119 13.2432 18.5084L10.7607 14.158C10.6315 13.9316 10.3822 13.8013 10.1225 13.8244L2.75233 14.4808M28.0001 7.99984C28.0001 10.9454 25.3334 13.3332 22.6667 15.9998C20.0001 13.3332 17.3334 10.9454 17.3334 7.99984C17.3334 5.05432 19.7212 2.6665 22.6667 2.6665C25.6123 2.6665 28.0001 5.05432 28.0001 7.99984ZM23.0001 7.6665C23.0001 7.8506 22.8508 7.99984 22.6667 7.99984C22.4827 7.99984 22.3334 7.8506 22.3334 7.6665C22.3334 7.48241 22.4827 7.33317 22.6667 7.33317C22.8508 7.33317 23.0001 7.48241 23.0001 7.6665Z" stroke="white" stroke-width="2" stroke-linecap="round" stroke-linejoin="round"/>
</svg>
