<svg width="32" height="32" viewBox="0 0 32 32" fill="none" xmlns="http://www.w3.org/2000/svg">
<path d="M8.00008 26.7831H11.4805C11.9343 26.7831 12.3853 26.8371 12.8252 26.945L16.5026 27.8387C17.3005 28.0331 18.1318 28.052 18.938 27.8954L23.004 27.1043C24.0781 26.8951 25.0662 26.3808 25.8405 25.6275L28.7173 22.8291C29.5388 22.0313 29.5388 20.7368 28.7173 19.9376C27.9776 19.2181 26.8064 19.1371 25.9696 19.7473L22.6169 22.1933C22.1367 22.5443 21.5525 22.7333 20.9516 22.7333H17.7141L19.7748 22.7332C20.9364 22.7332 21.8772 21.818 21.8772 20.6881V20.279C21.8772 19.3409 21.2208 18.5228 20.2855 18.296L17.1049 17.5225C16.5873 17.397 16.0572 17.3335 15.5243 17.3335C14.2379 17.3335 11.9093 18.3986 11.9093 18.3986L8.00008 20.0334M2.66675 19.4669L2.66675 27.2002C2.66675 27.9469 2.66675 28.3203 2.81207 28.6055C2.9399 28.8564 3.14388 29.0604 3.39476 29.1882C3.67998 29.3335 4.05334 29.3335 4.80008 29.3335H5.86675C6.61348 29.3335 6.98685 29.3335 7.27207 29.1882C7.52295 29.0604 7.72693 28.8564 7.85476 28.6055C8.00008 28.3203 8.00008 27.9469 8.00008 27.2002V19.4669C8.00008 18.7201 8.00008 18.3467 7.85476 18.0615C7.72693 17.8107 7.52295 17.6067 7.27207 17.4788C6.98685 17.3335 6.61349 17.3335 5.86675 17.3335H4.80008C4.05335 17.3335 3.67998 17.3335 3.39476 17.4788C3.14388 17.6067 2.9399 17.8106 2.81207 18.0615C2.66675 18.3467 2.66675 18.7201 2.66675 19.4669ZM22.9219 4.78986C22.1262 3.12472 20.2915 2.24257 18.5073 3.09402C16.7231 3.94547 15.963 5.96469 16.71 7.73729C17.1717 8.8328 18.4944 10.9602 19.4375 12.4256C19.786 12.967 19.9602 13.2377 20.2147 13.3961C20.433 13.5319 20.7063 13.6052 20.9633 13.5967C21.2629 13.5868 21.5491 13.4394 22.1216 13.1448C23.6711 12.3473 25.8803 11.1663 26.8278 10.4484C28.3611 9.28674 28.7409 7.15162 27.593 5.52851C26.4451 3.90539 24.4436 3.74568 22.9219 4.78986Z" stroke="white" stroke-width="2" stroke-linecap="round" stroke-linejoin="round"/>
</svg>
