<svg width="32" height="32" viewBox="0 0 32 32" fill="none" xmlns="http://www.w3.org/2000/svg">
<g clip-path="url(#clip0_27_482)">
<path d="M15.9974 31.9949C24.8326 31.9949 31.9949 24.8326 31.9949 15.9974C31.9949 7.16229 24.8326 0 15.9974 0C7.16229 0 0 7.16229 0 15.9974C0 24.8326 7.16229 31.9949 15.9974 31.9949Z" fill="#2F3E4F"/>
<path d="M15.7609 17.0261C15.041 15.5349 15.0359 12.4547 15.0359 12.4547C15.0359 11.056 16.2752 10.876 17.2008 11.1794C18.4143 11.4622 19.2679 11.2154 19.2679 11.2154C21.0266 10.696 21.4688 11.8839 21.4688 11.8839C21.7979 13.1489 21.1243 15.7303 20.6563 16.4142C20.4609 16.877 15.7609 17.0313 15.7609 17.0313V17.0261Z" fill="white" stroke="#2F3E4F" stroke-width="0.1" stroke-miterlimit="10"/>
<path d="M20.3529 16.7432C19.4942 15.3445 19.561 13.0048 19.561 13.0048C19.6279 11.4724 20.862 11.3027 21.7825 11.7244C21.7825 11.7244 22.2196 11.8684 22.8109 11.8838C23.3457 11.8992 23.8342 11.8272 24.225 11.6576C25.9837 11.1382 26.1688 12.4392 26.1688 12.4392C26.4979 13.7042 25.8242 16.2855 25.3563 16.9695C25.1609 17.4323 20.3529 16.7381 20.3529 16.7381V16.7432Z" fill="white" stroke="#2F3E4F" stroke-width="0.1" stroke-miterlimit="10"/>
<path d="M19.2268 14.5728C19.2628 14.4751 19.2834 14.3671 19.2834 14.254C19.2834 13.7398 18.8668 13.3232 18.3526 13.3232C17.8384 13.3232 17.4219 13.7398 17.4219 14.254C17.4219 14.3671 17.4424 14.47 17.4784 14.5728H19.2268Z" fill="#B94843"/>
<path d="M18.1264 14.2388H18.584C18.7434 14.2388 18.872 14.3673 18.872 14.5267H17.8333C17.8333 14.3673 17.9618 14.2388 18.1212 14.2388H18.1264Z" fill="white"/>
<path d="M25.3409 14.3982C25.5454 14.3982 25.7112 14.2324 25.7112 14.028C25.7112 13.8235 25.5454 13.6577 25.3409 13.6577C25.1365 13.6577 24.9707 13.8235 24.9707 14.028C24.9707 14.2324 25.1365 14.3982 25.3409 14.3982Z" stroke="#293B50" stroke-width="0.25" stroke-miterlimit="10"/>
<path d="M25.1558 14.275C25.2581 14.275 25.3409 14.1921 25.3409 14.0899C25.3409 13.9877 25.2581 13.9048 25.1558 13.9048C25.0536 13.9048 24.9707 13.9877 24.9707 14.0899C24.9707 14.1921 25.0536 14.275 25.1558 14.275Z" fill="#293B50"/>
<path d="M20.9855 14.3982C21.19 14.3982 21.3557 14.2324 21.3557 14.028C21.3557 13.8235 21.19 13.6577 20.9855 13.6577C20.781 13.6577 20.6152 13.8235 20.6152 14.028C20.6152 14.2324 20.781 14.3982 20.9855 14.3982Z" stroke="#293B50" stroke-width="0.25" stroke-miterlimit="10"/>
<path d="M20.8004 14.275C20.9026 14.275 20.9855 14.1921 20.9855 14.0899C20.9855 13.9877 20.9026 13.9048 20.8004 13.9048C20.6981 13.9048 20.6152 13.9877 20.6152 14.0899C20.6152 14.1921 20.6981 14.275 20.8004 14.275Z" fill="#293B50"/>
<path d="M23.0011 14.7375C23.163 14.7375 23.2942 14.6132 23.2942 14.4598C23.2942 14.3065 23.163 14.1821 23.0011 14.1821C22.8392 14.1821 22.708 14.3065 22.708 14.4598C22.708 14.6132 22.8392 14.7375 23.0011 14.7375Z" fill="#B94843"/>
<path d="M11.066 17.6941C10.3461 16.2029 10.3101 13.6884 10.3101 13.6884C10.3101 12.2897 11.683 12.3874 12.6138 12.6959C13.8273 12.9787 14.6861 12.6085 14.6861 12.6085C16.4447 12.0891 16.8818 13.4004 16.8818 13.4004C17.0618 14.0946 17.0309 15.0768 16.8818 16.0332C16.8664 16.1412 17.0309 16.5012 16.347 17.4627C16.1516 17.9255 11.0608 17.6993 11.0608 17.6993L11.066 17.6941Z" fill="white" stroke="#2F3E4F" stroke-width="0.1" stroke-miterlimit="10"/>
<path d="M15.8124 15.3186C15.926 15.3186 16.0181 15.2265 16.0181 15.1129C16.0181 14.9993 15.926 14.9072 15.8124 14.9072C15.6988 14.9072 15.6067 14.9993 15.6067 15.1129C15.6067 15.2265 15.6988 15.3186 15.8124 15.3186Z" fill="#293B50"/>
<path d="M13.8841 15.7662C13.9047 15.7097 13.9149 15.6428 13.9149 15.576C13.9149 15.3446 13.7915 15.1543 13.6424 15.1543C13.4933 15.1543 13.3699 15.3446 13.3699 15.576C13.3699 15.6428 13.3802 15.7097 13.4007 15.7662H13.8841Z" fill="#B94843"/>
<path d="M6.69505 16.846C5.97514 15.3548 5.8003 13.4933 5.8003 13.4933C5.57404 11.3542 7.36867 11.2513 8.29942 11.5547C9.63639 11.9095 10.5054 11.5547 10.5054 11.5547C12.5006 10.9839 12.6292 12.4443 12.6292 12.4443C12.8606 13.7864 12.372 16.3832 11.9093 17.0672C11.7138 17.53 6.70533 16.8409 6.70533 16.8409L6.69505 16.846Z" fill="white" stroke="#2F3E4F" stroke-width="0.1" stroke-miterlimit="10"/>
<path d="M4.01605 19.3244C4.0829 17.8229 5.0445 16.6351 6.10379 16.6042L10.9323 16.6351C10.9992 16.6351 11.066 16.6402 11.1329 16.6556C12.7321 16.995 12.3927 17.5761 13.92 17.5298C17.0156 17.6121 16.8922 15.9511 16.8922 15.9511C17.1493 15.8483 17.2367 16.3779 17.5504 16.5219C17.8692 16.7225 19.5867 16.8047 19.9415 16.1363C20.2757 15.7557 20.9134 16.2648 21.1551 16.4859C21.2168 16.5425 21.2939 16.5733 21.3762 16.5733L26.3127 16.5991C29.2438 16.8767 28.9095 19.9569 28.9095 19.9569C28.9095 19.9569 29.0586 23.0834 26.0453 23.5256H6.98825C3.68695 22.9754 4.0212 19.3244 4.0212 19.3244H4.01605Z" fill="#F45660"/>
<path d="M5.7798 18.0747C6.00984 18.0747 6.19632 17.8883 6.19632 17.6582C6.19632 17.4282 6.00984 17.2417 5.7798 17.2417C5.54976 17.2417 5.36328 17.4282 5.36328 17.6582C5.36328 17.8883 5.54976 18.0747 5.7798 18.0747Z" fill="white"/>
<path d="M26.9863 18.0747C27.2164 18.0747 27.4029 17.8883 27.4029 17.6582C27.4029 17.4282 27.2164 17.2417 26.9863 17.2417C26.7563 17.2417 26.5698 17.4282 26.5698 17.6582C26.5698 17.8883 26.7563 18.0747 26.9863 18.0747Z" fill="white"/>
<path d="M8.86523 17.2678C9.83711 17.3192 10.665 17.1546 11.0661 17.3912" stroke="white" stroke-linecap="round" stroke-linejoin="round"/>
<path d="M11.6367 17.6533C11.8218 17.7099 12.0327 17.8076 12.1201 17.9567" stroke="white" stroke-linecap="round" stroke-linejoin="round"/>
<path d="M17.062 17.103C16.63 17.9052 15.5193 17.9926 15.5193 17.9926" stroke="white" stroke-linecap="round" stroke-linejoin="round"/>
<path d="M21.7156 17.103H22.2658" stroke="white" stroke-linecap="round" stroke-linejoin="round"/>
<path d="M22.9702 17.103H24.3432" stroke="white" stroke-linecap="round" stroke-linejoin="round"/>
<path d="M7.14258 13.8068C7.63109 13.3132 8.03732 13.8068 8.03732 13.8068" stroke="#2F3E4F" stroke-width="0.25" stroke-linecap="round" stroke-linejoin="round"/>
<path d="M10.3616 13.6989C10.8501 13.2052 11.2563 13.6989 11.2563 13.6989" stroke="#2F3E4F" stroke-width="0.25" stroke-linecap="round" stroke-linejoin="round"/>
<path d="M10.0478 14.686C10.0478 14.686 10.0581 14.7323 10.0581 14.758C10.0581 15.1077 9.7084 15.3957 9.2816 15.3957C8.8548 15.3957 8.50513 15.1128 8.50513 14.758C8.50513 14.7323 8.51027 14.7117 8.51541 14.686H10.0529H10.0478Z" fill="#B94843"/>
<path d="M8.92163 14.7168H9.6364C9.6364 14.8094 9.55927 14.8865 9.46671 14.8865H9.09132C8.99876 14.8865 8.92163 14.8094 8.92163 14.7168Z" fill="white"/>
</g>
<defs>
<clipPath id="clip0_27_482">
<rect width="32" height="32" fill="white"/>
</clipPath>
</defs>
</svg>
