<svg width="32" height="32" viewBox="0 0 32 32" fill="none" xmlns="http://www.w3.org/2000/svg">
<g clip-path="url(#clip0_27_465)">
<path d="M15.9974 31.9949C24.8326 31.9949 31.9949 24.8326 31.9949 15.9974C31.9949 7.16229 24.8326 0 15.9974 0C7.16229 0 0 7.16229 0 15.9974C0 24.8326 7.16229 31.9949 15.9974 31.9949Z" fill="#2F3E4F"/>
<path fill-rule="evenodd" clip-rule="evenodd" d="M16.3214 20.1731C17.1904 20.1731 17.5452 19.1035 18.8462 19.1189C19.8644 19.1652 20.1626 20.7079 20.2294 21.8752C20.4043 25.0068 17.9155 28.3698 17.1904 27.9533C16.5939 27.6139 17.4732 25.8192 17.0053 25.1662C16.6402 24.6571 15.9511 24.7651 15.7352 25.269C15.2261 26.4466 16.6556 29.1257 15.8174 29.4805C15.2312 29.7273 13.2772 27.8761 12.3156 26.0661C11.2409 24.0555 10.6958 19.9777 12.0842 18.7847C12.5367 18.3939 13.3183 18.363 13.9045 18.6973C14.4959 19.0367 14.8301 20.0805 16.3214 20.1731Z" fill="white"/>
<path d="M11.5442 18.9797C8.35603 15.0099 12.8503 11.7189 12.8503 11.7189C12.7372 6.86977 10.8037 0.863663 10.8037 0.863663C11.7807 0.534561 12.768 0.292877 13.7554 0.15918C16.1208 6.86463 15.6477 13.7243 15.6477 13.7243C13.2668 14.9585 11.5442 18.9848 11.5442 18.9848V18.9797Z" fill="#00918F"/>
<path d="M19.6176 18.9746C23.0988 15.2516 18.6508 11.9812 18.6508 11.9812C19.129 7.15778 21.6076 1.01283 21.6076 1.01283C20.6974 0.668305 19.7204 0.406052 18.6868 0.226074C15.8226 6.73612 15.7095 13.7655 15.7095 13.7655C17.9875 15.1745 19.6176 18.9746 19.6176 18.9746Z" fill="#00918F"/>
<path d="M15.7455 14.8816C17.5432 14.8816 19.0005 13.4243 19.0005 11.6266C19.0005 9.8289 17.5432 8.37158 15.7455 8.37158C13.9478 8.37158 12.4905 9.8289 12.4905 11.6266C12.4905 13.4243 13.9478 14.8816 15.7455 14.8816Z" fill="#217E92"/>
<path d="M19.0055 11.6317C19.0055 13.4315 17.5451 14.8868 15.7454 14.8868V8.37158C17.5503 8.37158 19.0055 9.83197 19.0055 11.6317Z" fill="#68ACB0"/>
<path d="M14.7889 9.28662C14.2747 9.4306 13.9404 9.88826 13.9404 9.88826" stroke="#D8D8DE" stroke-width="1.5" stroke-miterlimit="10" stroke-linecap="round"/>
</g>
<defs>
<clipPath id="clip0_27_465">
<rect width="32" height="32" fill="white"/>
</clipPath>
</defs>
</svg>
