<svg width="32" height="33" viewBox="0 0 32 33" fill="none" xmlns="http://www.w3.org/2000/svg">
<path d="M16 32.648C24.8366 32.648 32 25.3395 32 16.324C32 7.3085 24.8366 0 16 0C7.16344 0 0 7.3085 0 16.324C0 25.3395 7.16344 32.648 16 32.648Z" fill="#363336"/>
<path fill-rule="evenodd" clip-rule="evenodd" d="M16.8743 10.4993C18.1807 10.4993 18.7053 8.86743 20.6545 8.88317C22.1768 8.95138 22.6294 11.3074 22.7271 13.0914C22.9894 17.8716 19.2658 23.0086 18.1807 22.3789C17.2909 21.8647 18.6024 19.1204 17.8978 18.1235C17.3475 17.3469 16.3189 17.5095 15.9949 18.2809C15.2337 20.0807 17.3732 24.1682 16.1183 24.7139C15.2388 25.0917 12.3176 22.2635 10.8724 19.5035C9.26263 16.4339 8.45003 10.2055 10.5278 8.38469C11.2067 7.79176 12.3793 7.74453 13.2536 8.24826C14.1382 8.76249 14.6371 10.3576 16.8692 10.4993H16.8743Z" fill="white"/>
<path d="M18.0777 12.189H14.7502C14.0685 12.189 13.5159 12.7528 13.5159 13.4483V15.0749C13.5159 15.7704 14.0685 16.3342 14.7502 16.3342H18.0777C18.7594 16.3342 19.3121 15.7704 19.3121 15.0749V13.4483C19.3121 12.7528 18.7594 12.189 18.0777 12.189Z" fill="#AED0D0"/>
<path d="M17.8257 13.0913H14.5291V15.4893H17.8257V13.0913Z" fill="#39585C"/>
<path d="M9.39111 14.2617H22.7167" stroke="#37757B" stroke-width="2" stroke-miterlimit="10" stroke-linecap="round"/>
<path d="M14.7915 12.189V13.5368" stroke="#008F95" stroke-width="2" stroke-miterlimit="10" stroke-linecap="round"/>
<path d="M18.0574 12.189V13.5368" stroke="#008F95" stroke-width="2" stroke-miterlimit="10" stroke-linecap="round"/>
<path d="M14.7915 14.9546V16.3339" stroke="#008F95" stroke-width="2" stroke-miterlimit="10" stroke-linecap="round"/>
<path d="M18.0574 14.9546V16.3339" stroke="#008F95" stroke-width="2" stroke-miterlimit="10" stroke-linecap="round"/>
</svg>
