<svg width="32" height="33" viewBox="0 0 32 33" fill="none" xmlns="http://www.w3.org/2000/svg">
<path d="M16 32.648C24.8366 32.648 32 25.3395 32 16.324C32 7.3085 24.8366 0 16 0C7.16344 0 0 7.3085 0 16.324C0 25.3395 7.16344 32.648 16 32.648Z" fill="#363336"/>
<path d="M16 32.648C24.8366 32.648 32 25.3395 32 16.324C32 7.3085 24.8366 0 16 0C7.16344 0 0 7.3085 0 16.324C0 25.3395 7.16344 32.648 16 32.648Z" fill="#2F3E4F"/>
<path fill-rule="evenodd" clip-rule="evenodd" d="M16.9617 10.3424C18.304 10.3424 18.9778 9.22471 20.9887 9.24045C22.5573 9.31391 23.0202 11.7381 23.1231 13.5746C23.3957 18.4965 19.559 23.7856 18.4378 23.135C17.5172 22.605 18.8698 19.7768 18.1498 18.7536C17.584 17.9508 16.5246 18.1187 16.1903 18.9163C15.4085 20.7685 17.6097 24.982 16.3188 25.5382C15.4137 25.9265 12.405 23.0143 10.9186 20.1703C9.26258 17.0063 8.42427 10.5942 10.5638 8.72098C11.2632 8.10706 12.4718 8.05983 13.3719 8.5793C14.2822 9.10927 14.6679 10.1902 16.9669 10.3371L16.9617 10.3424Z" fill="white"/>
<path d="M13.3718 13.0078C13.4695 12.2207 15.0433 11.9899 15.1719 13.0708" stroke="#2F3E4F" stroke-width="0.75" stroke-miterlimit="10" stroke-linecap="round"/>
<path d="M17.8618 13.0078C17.9595 12.2207 19.5333 11.9899 19.6619 13.0708" stroke="#2F3E4F" stroke-width="0.75" stroke-miterlimit="10" stroke-linecap="round"/>
<path d="M18.5458 15.3115C18.5561 15.3745 18.5664 15.4321 18.5664 15.4951C18.5664 16.3919 17.6921 17.1209 16.6172 17.1209C15.5423 17.1209 14.668 16.3919 14.668 15.4951C14.668 15.4321 14.6834 15.3692 14.6885 15.3115H18.5407H18.5458Z" fill="#B94843"/>
<path d="M15.7276 15.3901H17.5173V15.5683C17.5173 15.7097 17.4042 15.825 17.2653 15.825H15.9744C15.8356 15.825 15.7224 15.7097 15.7224 15.5683V15.3901H15.7276Z" fill="white"/>
</svg>
