<svg width="32" height="32" viewBox="0 0 32 32" fill="none" xmlns="http://www.w3.org/2000/svg">
<g clip-path="url(#clip0_30_541)">
<path d="M15.9974 31.9949C24.8326 31.9949 31.9949 24.8326 31.9949 15.9974C31.9949 7.16229 24.8326 0 15.9974 0C7.16229 0 0 7.16229 0 15.9974C0 24.8326 7.16229 31.9949 15.9974 31.9949Z" fill="#2F3E4F"/>
<path fill-rule="evenodd" clip-rule="evenodd" d="M22.3222 20.569C22.0857 22.4665 19.4632 23.3664 15.8122 23.3664C12.1612 23.3664 9.25586 22.2454 9.20958 20.425C9.19415 19.7977 9.11702 18.6304 9.73408 18.2139L21.772 18.255C22.2759 18.6458 22.3891 20.0188 22.3171 20.569H22.3222Z" fill="#F45660"/>
<path fill-rule="evenodd" clip-rule="evenodd" d="M15.8174 8.69043C20.0391 8.69043 23.4638 10.1714 23.4638 11.9917C23.4638 13.8121 20.0391 15.293 15.8174 15.293C11.5956 15.293 8.1709 13.8121 8.1709 11.9917C8.1709 10.1714 11.5956 8.69043 15.8174 8.69043Z" fill="#F45660"/>
<path fill-rule="evenodd" clip-rule="evenodd" d="M18.4862 16.1723H16.1105C15.946 16.1723 15.8123 16.0437 15.8123 15.8843V14.1514C15.8123 13.3801 16.4653 12.7476 17.2624 12.7476H17.4938C18.2034 12.7476 18.7793 13.3081 18.7793 13.992V15.8792C18.7793 16.0386 18.6456 16.1671 18.4811 16.1671L18.4862 16.1723Z" fill="white" stroke="#2F3E4F" stroke-width="0.25" stroke-miterlimit="10"/>
<path fill-rule="evenodd" clip-rule="evenodd" d="M20.6819 15.73H19.0261C18.8924 15.73 18.7793 15.6221 18.7793 15.4832V13.9714C18.7793 13.3698 19.2061 12.7476 19.7255 12.7476H20.2603C20.7848 12.7476 20.9647 13.2361 20.9647 13.8326V15.4421C20.9647 15.6015 20.8362 15.73 20.6768 15.73H20.6819Z" fill="white" stroke="#2F3E4F" stroke-width="0.25" stroke-miterlimit="10"/>
<path fill-rule="evenodd" clip-rule="evenodd" d="M22.5846 15.4166H21.2168C21.0831 15.4166 20.97 15.3086 20.97 15.1698V13.8431C20.97 13.3083 21.3402 12.7529 21.7927 12.7529H22.2555C22.7132 12.7529 22.8674 13.1849 22.8674 13.7248V15.1286C22.8674 15.288 22.7389 15.4166 22.5795 15.4166H22.5846Z" fill="white" stroke="#2F3E4F" stroke-width="0.25" stroke-miterlimit="10"/>
<path fill-rule="evenodd" clip-rule="evenodd" d="M10.9735 15.73H12.6293C12.763 15.73 12.8761 15.6221 12.8761 15.4832V13.9714C12.8761 13.3698 12.4493 12.7476 11.9299 12.7476H11.3952C10.8707 12.7476 10.6907 13.2361 10.6907 13.8326V15.4421C10.6907 15.6015 10.8192 15.73 10.9786 15.73H10.9735Z" fill="white" stroke="#2F3E4F" stroke-width="0.25" stroke-miterlimit="10"/>
<path fill-rule="evenodd" clip-rule="evenodd" d="M9.07091 15.4166H10.4387C10.5724 15.4166 10.6856 15.3086 10.6856 15.1698V13.8431C10.6856 13.3083 10.3153 12.7529 9.86281 12.7529H9.40001C8.94235 12.7529 8.78809 13.1849 8.78809 13.7248V15.1286C8.78809 15.288 8.91664 15.4166 9.07605 15.4166H9.07091Z" fill="white" stroke="#2F3E4F" stroke-width="0.25" stroke-miterlimit="10"/>
<path fill-rule="evenodd" clip-rule="evenodd" d="M13.164 16.1723H15.5191C15.6837 16.1723 15.8122 16.0437 15.8122 15.8843V14.1514C15.8122 13.3801 15.1643 12.7476 14.3724 12.7476H13.817C13.2925 12.7476 12.8657 13.1641 12.8657 13.6732V15.8792C12.8657 16.0386 12.9994 16.1671 13.1588 16.1671L13.164 16.1723Z" fill="white" stroke="#2F3E4F" stroke-width="0.25" stroke-miterlimit="10"/>
<path d="M16.0899 17.4785H17.6326C17.8228 17.4785 17.9771 17.6328 17.9771 17.823V19.448C17.9771 20.065 17.4783 20.5638 16.8612 20.5638C16.2442 20.5638 15.7454 20.065 15.7454 19.448V17.823C15.7454 17.6328 15.8996 17.4785 16.0899 17.4785Z" fill="white" stroke="#2F3E4F" stroke-width="0.25" stroke-miterlimit="10"/>
<path d="M18.2702 17.4785H19.602C19.7563 17.4785 19.8797 17.6019 19.8797 17.7562V19.2114C19.8797 19.7359 19.4529 20.1628 18.9284 20.1628C18.4039 20.1628 17.9771 19.7359 17.9771 19.2114V17.7716C17.9771 17.6071 18.1107 17.4785 18.2702 17.4785Z" fill="white" stroke="#2F3E4F" stroke-width="0.25" stroke-miterlimit="10"/>
<path d="M20.435 17.0981H21.2166C21.5252 17.0981 21.7771 17.3501 21.7771 17.6586V18.9493C21.7771 19.4738 21.3503 19.9007 20.8258 19.9007C20.3013 19.9007 19.8745 19.4738 19.8745 18.9493V17.6586C19.8745 17.3501 20.1265 17.0981 20.435 17.0981Z" fill="white" stroke="#2F3E4F" stroke-width="0.25" stroke-miterlimit="10"/>
<path d="M14.65 20.5688C14.0329 20.5688 13.5341 20.0701 13.5341 19.453V17.828C13.5341 17.6378 13.6884 17.4835 13.8787 17.4835H15.4213C15.6116 17.4835 15.7659 17.6378 15.7659 17.828V19.453C15.7659 20.0701 15.2671 20.5688 14.65 20.5688Z" fill="white" stroke="#2F3E4F" stroke-width="0.25" stroke-miterlimit="10"/>
<path d="M12.588 20.1626C12.0635 20.1626 11.6367 19.7358 11.6367 19.2113V17.756C11.6367 17.6018 11.7601 17.4784 11.9144 17.4784H13.2462C13.4108 17.4784 13.5393 17.6121 13.5393 17.7715V19.2113C13.5393 19.7358 13.1125 20.1626 12.588 20.1626Z" fill="white" stroke="#2F3E4F" stroke-width="0.25" stroke-miterlimit="10"/>
<path d="M10.6905 19.8955C10.166 19.8955 9.73923 19.4687 9.73923 18.9442V17.6535C9.73923 17.345 9.99119 17.093 10.2997 17.093H11.0813C11.3899 17.093 11.6418 17.345 11.6418 17.6535V18.9442C11.6418 19.4687 11.215 19.8955 10.6905 19.8955Z" fill="white" stroke="#2F3E4F" stroke-width="0.25" stroke-miterlimit="10"/>
</g>
<defs>
<clipPath id="clip0_30_541">
<rect width="32" height="32" fill="white"/>
</clipPath>
</defs>
</svg>
